<svg width="72" height="66" viewBox="0 0 72 66" fill="none" xmlns="http://www.w3.org/2000/svg">
<g filter="url(#filter0_d_13_778)">
<path d="M50.5834 5.08325H21.4167C13.3626 5.08325 6.83337 10.773 6.83337 17.7916V43.2083C6.83337 50.2269 13.3626 55.9166 21.4167 55.9166H50.5834C58.6375 55.9166 65.1667 50.2269 65.1667 43.2083V17.7916C65.1667 10.773 58.6375 5.08325 50.5834 5.08325Z" fill="white"/>
<path d="M47.6667 28.8987C48.0267 31.014 47.612 33.1743 46.4818 35.0724C45.3516 36.9705 43.5634 38.5098 41.3714 39.4712C39.1795 40.4326 36.6955 40.7672 34.2727 40.4275C31.85 40.0878 29.6118 39.091 27.8767 37.5789C26.1415 36.0668 24.9976 34.1164 24.6077 32.0051C24.2179 29.8939 24.6019 27.7292 25.7052 25.8191C26.8084 23.909 28.5747 22.3507 30.7529 21.3658C32.9311 20.3809 35.4102 20.0196 37.8375 20.3333C40.3136 20.6532 42.6059 21.6586 44.3758 23.201C46.1458 24.7434 47.2995 26.741 47.6667 28.8987Z" fill="white"/>
<path d="M52.0417 16.5208H52.0709M21.4167 5.08325H50.5834C58.6375 5.08325 65.1667 10.773 65.1667 17.7916V43.2083C65.1667 50.2269 58.6375 55.9166 50.5834 55.9166H21.4167C13.3626 55.9166 6.83337 50.2269 6.83337 43.2083V17.7916C6.83337 10.773 13.3626 5.08325 21.4167 5.08325ZM47.6667 28.8987C48.0267 31.014 47.612 33.1743 46.4818 35.0724C45.3516 36.9705 43.5634 38.5098 41.3714 39.4712C39.1795 40.4326 36.6955 40.7672 34.2727 40.4275C31.85 40.0878 29.6118 39.091 27.8767 37.5789C26.1415 36.0668 24.9976 34.1164 24.6077 32.0051C24.2179 29.8939 24.6019 27.7292 25.7052 25.8191C26.8084 23.909 28.5747 22.3507 30.7529 21.3658C32.9311 20.3809 35.4102 20.0196 37.8375 20.3333C40.3136 20.6532 42.6059 21.6586 44.3758 23.201C46.1458 24.7434 47.2995 26.741 47.6667 28.8987Z" stroke="#EF0C0C" stroke-width="4" stroke-linecap="round" stroke-linejoin="round"/>
</g>
<defs>
<filter id="filter0_d_13_778" x="-3" y="0" width="78" height="69" filterUnits="userSpaceOnUse" color-interpolation-filters="sRGB">
<feFlood flood-opacity="0" result="BackgroundImageFix"/>
<feColorMatrix in="SourceAlpha" type="matrix" values="0 0 0 0 0 0 0 0 0 0 0 0 0 0 0 0 0 0 127 0" result="hardAlpha"/>
<feOffset dy="4"/>
<feGaussianBlur stdDeviation="2"/>
<feComposite in2="hardAlpha" operator="out"/>
<feColorMatrix type="matrix" values="0 0 0 0 0 0 0 0 0 0 0 0 0 0 0 0 0 0 0.25 0"/>
<feBlend mode="normal" in2="BackgroundImageFix" result="effect1_dropShadow_13_778"/>
<feBlend mode="normal" in="SourceGraphic" in2="effect1_dropShadow_13_778" result="shape"/>
</filter>
</defs>
</svg>
